<svg width="120" height="106" viewBox="0 0 120 106" fill="none" xmlns="http://www.w3.org/2000/svg">
<path d="M50.1387 86.9777C51.3203 87.3164 52.0035 88.5474 51.6647 89.7279C51.3259 90.9084 50.0934 91.5906 48.9117 91.2523C47.7298 90.9138 47.0458 89.6825 47.3847 88.5019C47.7236 87.3213 48.9568 86.6392 50.1387 86.9777ZM64.8208 89.4238C66.0026 89.7624 66.6864 90.9938 66.3477 92.1743C66.0088 93.3549 64.7754 94.038 63.5935 93.6994C62.4116 93.3609 61.7288 92.1289 62.0677 90.9483C62.4068 89.7679 63.639 89.0853 64.8208 89.4238ZM36.4064 81.2228C37.5882 81.5613 38.2721 82.7926 37.9333 83.9732C37.5944 85.1539 36.361 85.8369 35.1791 85.4984C33.9974 85.1597 33.3144 83.9278 33.6533 82.7473C33.9922 81.5668 35.2246 80.8845 36.4064 81.2228ZM23.5422 72.4435C24.7238 72.7822 25.4068 74.0141 25.0679 75.1946C24.729 76.375 23.4966 77.0574 22.3149 76.7191C21.1331 76.3806 20.4492 75.1492 20.7879 73.9687C21.1268 72.788 22.3603 72.105 23.5422 72.4435ZM80.4048 88.7314C81.5866 89.07 82.2697 90.301 81.9308 91.4816C81.5919 92.6622 80.3596 93.3445 79.1778 93.006C77.9959 92.6675 77.3119 91.4362 77.6508 90.2556C77.9897 89.0749 79.2229 88.3928 80.4048 88.7314ZM53.6888 74.61C54.533 74.8518 55.0218 75.7319 54.7798 76.5752C54.5377 77.4185 53.6563 77.9062 52.8121 77.6644C51.9681 77.4224 51.48 76.5425 51.7221 75.6994C51.9641 74.8562 52.8447 74.3684 53.6888 74.61ZM65.3142 76.1805C66.1583 76.4223 66.6471 77.3025 66.4051 78.1458C66.163 78.9891 65.2816 79.4767 64.4374 79.2349C63.5935 78.9929 63.1054 78.1131 63.3474 77.2699C63.5895 76.4269 64.4702 75.939 65.3142 76.1805ZM43.0135 69.7297C43.8577 69.9715 44.3456 70.8514 44.1035 71.6947C43.8613 72.5377 42.9811 73.0249 42.1371 72.7832C41.2931 72.5413 40.805 71.6622 41.0468 70.8191C41.2888 69.9758 42.1694 69.488 43.0135 69.7297ZM33.2059 61.827C34.0499 62.0688 34.538 62.9478 34.2961 63.791C34.0541 64.6343 33.1735 65.1222 32.3294 64.8804C31.4852 64.6386 30.9973 63.7587 31.2394 62.9154C31.4815 62.0723 32.3617 61.5852 33.2059 61.827ZM77.8401 74.6101C78.6843 74.8519 79.1722 75.7317 78.9301 76.5751C78.688 77.4183 77.8075 77.9063 76.9634 77.6645C76.1193 77.4226 75.6313 76.5427 75.8734 75.6995C76.1154 74.8562 76.996 74.3684 77.8401 74.6101ZM56.2689 65.6254C56.7752 65.7706 57.0682 66.2984 56.9231 66.8043C56.7779 67.3102 56.2493 67.6026 55.7429 67.4577C55.2364 67.3126 54.9434 66.7848 55.0887 66.2788C55.234 65.7729 55.7624 65.4803 56.2689 65.6254ZM48.0633 61.8853C48.5697 62.0304 48.8625 62.5583 48.7176 63.0642C48.5723 63.5702 48.0439 63.8627 47.5374 63.7176C47.0309 63.5725 46.7379 63.0447 46.8831 62.5387C47.0285 62.033 47.557 61.7403 48.0633 61.8853ZM65.1834 66.7893C65.6897 66.9345 65.9829 67.4622 65.8377 67.9681C65.6924 68.474 65.1639 68.7664 64.6575 68.6215C64.1509 68.4764 63.858 67.9486 64.0032 67.4427C64.1485 66.9367 64.6769 66.6442 65.1834 66.7893ZM74.8211 65.4835C75.3276 65.6286 75.6205 66.1564 75.4753 66.6624C75.3301 67.1683 74.8017 67.4608 74.2951 67.3158C73.7888 67.1706 73.4957 66.6428 73.6409 66.1369C73.7862 65.631 74.3147 65.3386 74.8211 65.4835ZM40.5962 55.679C41.1027 55.8242 41.3957 56.3519 41.2504 56.8579C41.1051 57.3638 40.5767 57.6563 40.0702 57.5113C39.5638 57.3662 39.2709 56.8384 39.416 56.3324C39.5612 55.8264 40.0897 55.5339 40.5962 55.679ZM58.8909 56.4873C59.2284 56.5842 59.4234 56.9363 59.3267 57.2734C59.2299 57.6107 58.8777 57.806 58.5401 57.7095C58.2024 57.6127 58.0066 57.2604 58.1034 56.9231C58.2003 56.5858 58.5533 56.3906 58.8909 56.4873ZM53.3208 53.8729C53.6584 53.9696 53.8536 54.3209 53.7569 54.6581C53.66 54.9954 53.308 55.1908 52.9703 55.0941C52.6326 54.9974 52.4377 54.6453 52.5345 54.308C52.6315 53.9708 52.9832 53.7762 53.3208 53.8729ZM64.9382 57.1986C65.2758 57.2953 65.4707 57.6475 65.3739 57.9847C65.2771 58.322 64.925 58.5174 64.5874 58.4207C64.2497 58.324 64.0548 57.9719 64.1516 57.6346C64.2485 57.2974 64.6005 57.1019 64.9382 57.1986ZM47.8952 50.9962C48.2329 51.0929 48.4278 51.445 48.3309 51.7823C48.234 52.1194 47.8822 52.3141 47.5446 52.2174C47.2072 52.1206 47.012 51.7694 47.1086 51.4322C47.2054 51.0949 47.5575 50.8996 47.8952 50.9962ZM71.0971 57.6412C71.4347 57.7379 71.6307 58.0894 71.5341 58.4266C71.4373 58.764 71.0843 58.9591 70.7466 58.8624C70.4092 58.7655 70.214 58.4134 70.3108 58.0762C70.4078 57.7393 70.7597 57.5448 71.0971 57.6412ZM69.096 20.9357C87.7667 26.2838 122.908 43.7582 112.655 49.4356C108.964 51.4788 83.9725 53.2746 83.9581 53.2756C83.9124 53.2981 72.8802 58.7167 59.3624 54.8447C45.8642 50.9782 39.382 40.5674 39.3365 40.4941C39.3365 40.4941 18.4004 24.5046 17.0364 22.0464C11.3534 11.8043 50.4254 15.5876 69.096 20.9357ZM61.3607 47.9222C55.1998 46.1575 49.8783 45.8678 49.4745 47.2745C49.0708 48.6812 53.7374 51.2525 59.8982 53.0172C66.0591 54.782 71.3814 55.0719 71.7853 53.6652C72.1891 52.2585 67.5217 49.687 61.3607 47.9222ZM93.8009 46.0413C93.6688 45.5212 93.1271 45.2137 92.6128 45.3668L84.5133 47.7805C84.2488 47.8596 84.0941 48.1315 84.162 48.3991C84.2301 48.6669 84.4972 48.8365 84.7688 48.7842L93.0736 47.184C93.6011 47.0824 93.933 46.5615 93.8009 46.0413ZM36.2215 29.1641C35.8666 28.7619 35.2435 28.7349 34.8554 29.106C34.4674 29.4772 34.4725 30.0947 34.866 30.4601L41.0601 36.2134C41.2627 36.4015 41.5792 36.3991 41.7789 36.208C41.9784 36.0169 41.9918 35.7045 41.8092 35.4975L36.2215 29.1641ZM50.5071 27.7249C50.3473 27.2199 49.7871 26.9263 49.2786 27.0815C48.77 27.2368 48.521 27.7772 48.7333 28.2662L51.9232 35.6081C52.0327 35.8602 52.3248 35.9951 52.5869 35.915C52.8487 35.8349 52.9897 35.5681 52.9075 35.308L50.5071 27.7249ZM82.7267 36.6614C82.3778 36.2605 81.7463 36.212 81.3428 36.5555L75.2852 41.7169C75.0772 41.894 75.0551 42.1947 75.235 42.4014C75.4148 42.6079 75.7332 42.6479 75.9597 42.4922L82.5597 37.9545C82.9992 37.6522 83.0754 37.0623 82.7267 36.6614ZM66.7992 28.9795C66.2799 28.8307 65.742 29.1487 65.6221 29.6754L63.9635 36.9542C63.9017 37.2261 64.0635 37.4989 64.3317 37.5757C64.5997 37.6523 64.8808 37.5065 64.9727 37.2432L67.4283 30.1928C67.6059 29.6827 67.3183 29.1283 66.7992 28.9795ZM70.0585 13.7176C88.0118 18.8602 90.0382 27.8311 90.0504 27.8857C89.9859 27.8478 82.0293 23.1765 68.4591 19.2894C54.8755 15.3985 47.5458 15.6958 47.5008 15.6977C47.5342 15.6693 54.9531 9.39082 70.0585 13.7176Z" fill="black"/>
</svg>
